# xmcd
#
# Track frame offsets: 
#        150
#        24157
#        44298
#        64985
#        83529
#        102023
#        125019
#        147850
#        167439
#        193483
#        208767
#        228448
#
# Disc length: 3345 seconds
#
# Revision: 0
# Processed by: cddbd v1.5.2PL0 Copyright (c) Steve Scherf et al.
# Submitted via: ExactAudioCopy v1.0b3
#
DISCID=a00d0f0c
DTITLE=Huy Sinh - Chieu Thu Ay
DYEAR=1986
DGENRE=
TTITLE0=Chieu thu ay [bolero]
TTITLE1=Nhu giot suong khuya [slow rock]
TTITLE2=Roi tinh qua mau [boston]
TTITLE3=Suoi le xanh [bolero]
TTITLE4=Nhung ngay xa em [chacha]
TTITLE5=Nhu dau chim buon [boston]
TTITLE6=Nhung gi cho em [slow]
TTITLE7=Nguoi xa toi [boston]
TTITLE8=Dem ve tuong nho [bolero]
TTITLE9=Mua dem doc hanh [chacha]
TTITLE10=Gio cuon chieu hom [slow rock]
TTITLE11=Thang chin buon [boston]
EXTD=
EXTT0=
EXTT1=
EXTT2=
EXTT3=
EXTT4=
EXTT5=
EXTT6=
EXTT7=
EXTT8=
EXTT9=
EXTT10=
EXTT11=
PLAYORDER=
